<mxfile host="Electron" agent="Mozilla/5.0 (Windows NT 10.0; Win64; x64) AppleWebKit/537.36 (KHTML, like Gecko) draw.io/27.0.9 Chrome/134.0.6998.205 Electron/35.4.0 Safari/537.36" compressed="false" version="27.0.9">
  <diagram id="UxMqaiS_ZeVZrvt0yCDw" name="Page-1">
    <mxGraphModel dx="2526" dy="875" grid="1" gridSize="10" guides="1" tooltips="1" connect="1" arrows="1" fold="1" page="1" pageScale="1" pageWidth="1100" pageHeight="850" math="0" shadow="0">
      <root>
        <mxCell id="0" />
        <mxCell id="1" parent="0" />
        <object label="runningTime:=0, roomTemperature:=30" concept="initialization" usage="Comma separated list of identifiers. Predicates as-is, goals, tasks, through camel-case representation. Variables and qualities are of the form [identifier] := [constant]" id="s7Z0I-bON0rsUeWnYovQ-39">
          <mxCell style="rounded=0;whiteSpace=wrap;html=1;fillColor=#dae8fc;strokeColor=#7570b3;align=left;labelPosition=center;verticalLabelPosition=middle;verticalAlign=middle;horizontal=1;strokeWidth=3;spacingLeft=4;" parent="1" vertex="1">
            <mxGeometry x="70" y="920" width="310" height="50" as="geometry" />
          </mxCell>
        </object>
        <object label="roomTemperature(-10,100), runningTime(0,100), hvacOn" concept="export" usage="Comma separated list of identifiers. Predicates, variable as-is, goals, tasks, qualities, through camel-case representation." id="s7Z0I-bON0rsUeWnYovQ-40">
          <mxCell style="rounded=0;whiteSpace=wrap;html=1;fillColor=#fff2cc;strokeColor=#d6b656;align=left;labelPosition=center;verticalLabelPosition=middle;verticalAlign=middle;horizontal=1;strokeWidth=3;spacingLeft=4;" parent="1" vertex="1">
            <mxGeometry x="67.5" y="990" width="422.5" height="30" as="geometry" />
          </mxCell>
        </object>
        <object label="roomTemperature,runningTime,hvacOn" concept="crossrun" usage="Comma separated list of identifiers. Predicates, variable as-is, goals, tasks, qualities, through camel-case representation." id="s7Z0I-bON0rsUeWnYovQ-41">
          <mxCell style="rounded=0;whiteSpace=wrap;html=1;fillColor=#e1d5e7;strokeColor=#9673a6;align=left;labelPosition=center;verticalLabelPosition=middle;verticalAlign=middle;horizontal=1;strokeWidth=3;spacingLeft=4;" parent="1" vertex="1">
            <mxGeometry x="402.5" y="920" width="257.5" height="50" as="geometry" />
          </mxCell>
        </object>
        <object label="Control Heater" concept="goal" actor="default" runs="10" id="s7Z0I-bON0rsUeWnYovQ-43">
          <mxCell style="rounded=1;whiteSpace=wrap;html=1;arcSize=46;fillColor=#d5e8d4;strokeColor=#688F51;fontSize=15;strokeWidth=3;" parent="1" vertex="1">
            <mxGeometry x="275" y="170" width="95" height="50" as="geometry" />
          </mxCell>
        </object>
        <object label="Send On Signal" concept="task" actor="default" id="s7Z0I-bON0rsUeWnYovQ-47">
          <mxCell style="shape=hexagon;perimeter=hexagonPerimeter2;whiteSpace=wrap;html=1;fixedSize=1;strokeWidth=3;fontSize=15;size=20;fillColor=#d5e8d4;strokeColor=#688F51;" parent="1" vertex="1">
            <mxGeometry x="140" y="300" width="135" height="50" as="geometry" />
          </mxCell>
        </object>
        <object label="Send Off Signal" concept="task" actor="default" id="s7Z0I-bON0rsUeWnYovQ-48">
          <mxCell style="shape=hexagon;perimeter=hexagonPerimeter2;whiteSpace=wrap;html=1;fixedSize=1;strokeWidth=3;fontSize=15;size=20;fillColor=#d5e8d4;strokeColor=#688F51;" parent="1" vertex="1">
            <mxGeometry x="342.5" y="290" width="125" height="50" as="geometry" />
          </mxCell>
        </object>
        <object label="OR" concept="orDecomp" id="s7Z0I-bON0rsUeWnYovQ-49">
          <mxCell style="orthogonalLoop=1;jettySize=auto;html=1;fontSize=20;endArrow=open;endFill=0;endSize=17;strokeColor=#000000;curved=1;" parent="1" source="s7Z0I-bON0rsUeWnYovQ-47" target="s7Z0I-bON0rsUeWnYovQ-43" edge="1">
            <mxGeometry x="0.0383" y="2" relative="1" as="geometry">
              <mxPoint x="345" y="240" as="sourcePoint" />
              <mxPoint x="345" y="180" as="targetPoint" />
              <mxPoint as="offset" />
            </mxGeometry>
          </mxCell>
        </object>
        <object label="OR" concept="orDecomp" id="s7Z0I-bON0rsUeWnYovQ-50">
          <mxCell style="orthogonalLoop=1;jettySize=auto;html=1;fontSize=20;endArrow=open;endFill=0;endSize=17;strokeColor=#000000;curved=1;" parent="1" source="s7Z0I-bON0rsUeWnYovQ-48" target="s7Z0I-bON0rsUeWnYovQ-43" edge="1">
            <mxGeometry x="0.0383" y="2" relative="1" as="geometry">
              <mxPoint x="385" y="360" as="sourcePoint" />
              <mxPoint x="290.71428571428567" y="250" as="targetPoint" />
              <mxPoint as="offset" />
            </mxGeometry>
          </mxCell>
        </object>
        <object label="" concept="effectGroup" id="s7Z0I-bON0rsUeWnYovQ-51">
          <mxCell style="ellipse;whiteSpace=wrap;html=1;aspect=fixed;strokeWidth=2;fontSize=15;fillColor=#e1d5e7;strokeColor=#9673a6;" parent="1" vertex="1">
            <mxGeometry x="210" y="390" width="20" height="20" as="geometry" />
          </mxCell>
        </object>
        <object label="eff" concept="effectLink" id="s7Z0I-bON0rsUeWnYovQ-52">
          <mxCell style="orthogonalLoop=1;jettySize=auto;html=1;fontSize=20;endArrow=open;endFill=0;endSize=7;elbow=vertical;strokeColor=#000302;" parent="1" source="s7Z0I-bON0rsUeWnYovQ-47" target="s7Z0I-bON0rsUeWnYovQ-51" edge="1">
            <mxGeometry relative="1" as="geometry">
              <mxPoint x="215" y="380" as="sourcePoint" />
              <mxPoint y="235" as="targetPoint" />
            </mxGeometry>
          </mxCell>
        </object>
        <object label="signalOnS" concept="effect" status="attainment" actor="" id="s7Z0I-bON0rsUeWnYovQ-53">
          <mxCell style="ellipse;whiteSpace=wrap;html=1;strokeWidth=3;fontSize=15;fillColor=#e1d5e7;strokeColor=#0000FF;" parent="1" vertex="1">
            <mxGeometry x="-10" y="460" width="150" height="40" as="geometry" />
          </mxCell>
        </object>
        <object label="signalOnF" concept="effect" status="failure" actor="" id="s7Z0I-bON0rsUeWnYovQ-54">
          <mxCell style="ellipse;whiteSpace=wrap;html=1;strokeWidth=3;fontSize=15;fillColor=#e1d5e7;strokeColor=#d95f02;" parent="1" vertex="1">
            <mxGeometry x="200" y="480" width="140" height="40" as="geometry" />
          </mxCell>
        </object>
        <object label="0.95" concept="effectGroupLink" id="s7Z0I-bON0rsUeWnYovQ-55">
          <mxCell style="endArrow=openThin;html=1;fontSize=15;endFill=0;elbow=vertical;curved=1;strokeColor=#000000;" parent="1" source="s7Z0I-bON0rsUeWnYovQ-51" target="s7Z0I-bON0rsUeWnYovQ-53" edge="1">
            <mxGeometry x="-0.2" width="50" height="50" relative="1" as="geometry">
              <mxPoint x="312" y="465" as="sourcePoint" />
              <mxPoint x="312" y="515" as="targetPoint" />
              <mxPoint as="offset" />
            </mxGeometry>
          </mxCell>
        </object>
        <object label="0.05" concept="effectGroupLink" id="s7Z0I-bON0rsUeWnYovQ-56">
          <mxCell style="endArrow=openThin;html=1;fontSize=15;endFill=0;elbow=vertical;curved=1;strokeColor=#000000;" parent="1" source="s7Z0I-bON0rsUeWnYovQ-51" target="s7Z0I-bON0rsUeWnYovQ-54" edge="1">
            <mxGeometry x="-0.2" width="50" height="50" relative="1" as="geometry">
              <mxPoint x="178.44527140110836" y="502.55218729872297" as="sourcePoint" />
              <mxPoint x="131.91225062277442" y="555.5924992853409" as="targetPoint" />
              <mxPoint as="offset" />
            </mxGeometry>
          </mxCell>
        </object>
        <object label="" concept="effectGroup" id="s7Z0I-bON0rsUeWnYovQ-57">
          <mxCell style="ellipse;whiteSpace=wrap;html=1;aspect=fixed;strokeWidth=2;fontSize=15;fillColor=#e1d5e7;strokeColor=#9673a6;" parent="1" vertex="1">
            <mxGeometry x="440" y="380" width="20" height="20" as="geometry" />
          </mxCell>
        </object>
        <object label="eff" concept="effectLink" id="s7Z0I-bON0rsUeWnYovQ-58">
          <mxCell style="orthogonalLoop=1;jettySize=auto;html=1;fontSize=20;endArrow=open;endFill=0;endSize=7;elbow=vertical;strokeColor=#000302;" parent="1" source="s7Z0I-bON0rsUeWnYovQ-48" target="s7Z0I-bON0rsUeWnYovQ-57" edge="1">
            <mxGeometry relative="1" as="geometry">
              <mxPoint x="445" y="410" as="sourcePoint" />
              <mxPoint x="230" y="265" as="targetPoint" />
            </mxGeometry>
          </mxCell>
        </object>
        <object label="signalOffS" concept="effect" status="attainment" actor="" id="s7Z0I-bON0rsUeWnYovQ-59">
          <mxCell style="ellipse;whiteSpace=wrap;html=1;strokeWidth=3;fontSize=15;fillColor=#e1d5e7;strokeColor=#0000FF;" parent="1" vertex="1">
            <mxGeometry x="342.5" y="430" width="125" height="40" as="geometry" />
          </mxCell>
        </object>
        <object label="signalOffF" concept="effect" status="failure" actor="" id="s7Z0I-bON0rsUeWnYovQ-60">
          <mxCell style="ellipse;whiteSpace=wrap;html=1;strokeWidth=3;fontSize=15;fillColor=#e1d5e7;strokeColor=#d95f02;" parent="1" vertex="1">
            <mxGeometry x="530" y="450" width="130" height="40" as="geometry" />
          </mxCell>
        </object>
        <object label="0.95" concept="effectGroupLink" id="s7Z0I-bON0rsUeWnYovQ-61">
          <mxCell style="endArrow=openThin;html=1;fontSize=15;endFill=0;elbow=vertical;curved=1;strokeColor=#000000;" parent="1" source="s7Z0I-bON0rsUeWnYovQ-57" target="s7Z0I-bON0rsUeWnYovQ-59" edge="1">
            <mxGeometry x="-0.2" width="50" height="50" relative="1" as="geometry">
              <mxPoint x="542" y="495" as="sourcePoint" />
              <mxPoint x="542" y="545" as="targetPoint" />
              <mxPoint as="offset" />
            </mxGeometry>
          </mxCell>
        </object>
        <object label="0.05" concept="effectGroupLink" id="s7Z0I-bON0rsUeWnYovQ-62">
          <mxCell style="endArrow=openThin;html=1;fontSize=15;endFill=0;elbow=vertical;curved=1;strokeColor=#000000;" parent="1" source="s7Z0I-bON0rsUeWnYovQ-57" target="s7Z0I-bON0rsUeWnYovQ-60" edge="1">
            <mxGeometry x="-0.2" width="50" height="50" relative="1" as="geometry">
              <mxPoint x="408.44527140110836" y="532.552187298723" as="sourcePoint" />
              <mxPoint x="361.9122506227744" y="585.5924992853409" as="targetPoint" />
              <mxPoint as="offset" />
            </mxGeometry>
          </mxCell>
        </object>
        <object label="Cost" concept="quality" actor="default" formula="runningTime * 0.06" dtxFormula="&lt;multiply&gt;&#xa; &lt;numConst&gt;0.06&lt;/numConst&gt;&#xa; &lt;qualID&gt;runningTime&lt;/qualID&gt;&#xa;&lt;/multiply&gt;" id="s7Z0I-bON0rsUeWnYovQ-84">
          <mxCell style="ellipse;shape=cloud;whiteSpace=wrap;html=1;strokeWidth=3;fontSize=15;fillColor=#d5e8d4;strokeColor=#688F51;" parent="1" vertex="1">
            <mxGeometry x="130" y="670" width="100" height="60" as="geometry" />
          </mxCell>
        </object>
        <object label="Comfort" concept="quality" actor="default" formula="-0.1 * (roomTemperature - 23) * (roomTemperature - 23)" dtxFormula="&lt;multiply&gt;&#xa; &lt;subtract&gt;&#xa;  &lt;left&gt;&lt;qualID&gt;roomTemperature&lt;/qualID&gt;&lt;/left&gt;&#xa;  &lt;right&gt;&lt;numConst&gt;23&lt;/numConst&gt;&lt;/right&gt;&#xa; &lt;/subtract&gt;&#xa; &lt;subtract&gt;&#xa;&lt;left&gt;&#xa;  &lt;qualID&gt;roomTemperature&lt;/qualID&gt;&#xa;&lt;/left&gt;&#xa;  &lt;right&gt;&#xa;&lt;numConst&gt;23&lt;/numConst&gt;&#xa;&lt;/right&gt;&#xa; &lt;/subtract&gt;&#xa; &lt;numConst&gt;-0.1&lt;/numConst&gt;&#xa;&lt;/multiply&gt;" id="s7Z0I-bON0rsUeWnYovQ-86">
          <mxCell style="ellipse;shape=cloud;whiteSpace=wrap;html=1;strokeWidth=3;fontSize=15;fillColor=#d5e8d4;strokeColor=#688F51;" parent="1" vertex="1">
            <mxGeometry x="400" y="667" width="100" height="60" as="geometry" />
          </mxCell>
        </object>
        <object label="Overall Quality" concept="quality" actor="default" root="true" isRoot="true" id="s7Z0I-bON0rsUeWnYovQ-89">
          <mxCell style="ellipse;shape=cloud;whiteSpace=wrap;html=1;strokeWidth=3;fontSize=15;fillColor=#d5e8d4;strokeColor=#688F51;" parent="1" vertex="1">
            <mxGeometry x="262.5" y="730" width="115" height="60" as="geometry" />
          </mxCell>
        </object>
        <object label="0.3" concept="contributionLink" id="vVbBvmcP8cE8SM1TlQaR-46">
          <mxCell style="endArrow=classic;html=1;fontSize=15;elbow=vertical;curved=1;rounded=0;" parent="1" source="s7Z0I-bON0rsUeWnYovQ-84" target="s7Z0I-bON0rsUeWnYovQ-89" edge="1">
            <mxGeometry x="-0.0766" relative="1" as="geometry">
              <mxPoint x="250" y="690.094972067039" as="sourcePoint" />
              <mxPoint x="303.31698548120585" y="690.0294873246582" as="targetPoint" />
              <Array as="points">
                <mxPoint x="220" y="760" />
              </Array>
              <mxPoint as="offset" />
            </mxGeometry>
          </mxCell>
        </object>
        <object label="0.7" concept="contributionLink" id="vVbBvmcP8cE8SM1TlQaR-47">
          <mxCell style="endArrow=classic;html=1;fontSize=15;elbow=vertical;curved=1;rounded=0;" parent="1" source="s7Z0I-bON0rsUeWnYovQ-86" target="s7Z0I-bON0rsUeWnYovQ-89" edge="1">
            <mxGeometry x="-0.0119" y="-9" relative="1" as="geometry">
              <mxPoint x="208.56953381769745" y="737.854300726546" as="sourcePoint" />
              <mxPoint x="272.5000000000009" y="770" as="targetPoint" />
              <Array as="points">
                <mxPoint x="440" y="770" />
              </Array>
              <mxPoint as="offset" />
            </mxGeometry>
          </mxCell>
        </object>
        <object label="Room Temperature" concept="quality" actor="default" formula="hvacOn * (0.05 * PREVIOUS(roomTemperature) + 1.75) + 0.9 * PREVIOUS(roomTemperature) + 0.5" note="" dtxFormula="&lt;add&gt;&#xa; &lt;numConst&gt;0.5&lt;/numConst&gt;&#xa; &lt;multiply&gt;&#xa;  &lt;numConst&gt;0.9&lt;/numConst&gt;&#xa;  &lt;previous&gt;&#xa;   &lt;qualID&gt;roomTemperature&lt;/qualID&gt;&#xa;  &lt;/previous&gt;&#xa; &lt;/multiply&gt;&#xa; &lt;multiply&gt;&#xa;  &lt;predicateID&gt;hvacOn&lt;/predicateID&gt;&#xa;  &lt;add&gt;&#xa;   &lt;multiply&gt;&#xa;    &lt;numConst&gt;0.05&lt;/numConst&gt;&#xa;    &lt;previous&gt;&#xa;     &lt;qualID&gt;roomTemperature&lt;/qualID&gt;&#xa;    &lt;/previous&gt;  &#xa;   &lt;/multiply&gt;&#xa;   &lt;numConst&gt;1.75&lt;/numConst&gt;&#xa;  &lt;/add&gt;&#xa; &lt;/multiply&gt;&#xa;&lt;/add&gt;" id="vVbBvmcP8cE8SM1TlQaR-48">
          <mxCell style="ellipse;shape=cloud;whiteSpace=wrap;html=1;strokeWidth=3;fontSize=15;fillColor=#d5e8d4;strokeColor=#688F51;" parent="1" vertex="1">
            <mxGeometry x="430" y="570" width="170" height="60" as="geometry" />
          </mxCell>
        </object>
        <object label="hvacOn" concept="precondition" usage="&#xa;&#xa;Use operators AND, OR, NOT, PREV, and GT (for &gt;), LT (for &lt;), GTE (for &gt;=), LTE (for &lt;=), EQ (for ==), NEQ (for !=). Ground atoms are predicates or camel-case representaitons of goals, task, predicates. DO NOT USE any formatting (boldface etc.). " formula="PREVIOUS(hvacOn) AND NOT signalOffS OR signalOnS" notes="" dtxFormula="&lt;or&gt;&#xa; &lt;and&gt;&#xa;  &lt;previous&gt;&#xa;   &lt;preconditionID&gt;hvacOn&lt;/preconditionID&gt;&#xa;  &lt;/previous&gt;&#xa;  &lt;not&gt;&#xa;   &lt;predicateID&gt;signalOffS&lt;/predicateID&gt;&#xa;  &lt;/not&gt;&#xa; &lt;/and&gt;&#xa; &lt;predicateID&gt;signalOnS&lt;/predicateID&gt;&#xa;&lt;/or&gt;" id="vVbBvmcP8cE8SM1TlQaR-50">
          <mxCell style="rounded=0;whiteSpace=wrap;html=1;strokeWidth=3;fontSize=15;fillColor=#f8cecc;strokeColor=#b85450;" parent="1" vertex="1">
            <mxGeometry x="290" y="560" width="100" height="30" as="geometry" />
          </mxCell>
        </object>
        <object label="Running Time" concept="quality" actor="default" formula="hvacOn * 10" note="" dtxFormula="&lt;add&gt;&#xa; &lt;previous&gt;&lt;qualID&gt;runningTime&lt;/qualID&gt;&lt;/previous&gt;&#xa; &lt;multiply&gt;&#xa;  &lt;numConst&gt;10&lt;/numConst&gt;&#xa;  &lt;predicateID&gt;hvacOn&lt;/predicateID&gt;&#xa; &lt;/multiply&gt;&#xa;&lt;/add&gt;" id="vVbBvmcP8cE8SM1TlQaR-53">
          <mxCell style="ellipse;shape=cloud;whiteSpace=wrap;html=1;strokeWidth=3;fontSize=15;fillColor=#d5e8d4;strokeColor=#688F51;" parent="1" vertex="1">
            <mxGeometry x="60" y="590" width="170" height="60" as="geometry" />
          </mxCell>
        </object>
      </root>
    </mxGraphModel>
  </diagram>
</mxfile>
